<?xml version="1.0" encoding="UTF-8" standalone="no"?>
<!-- Created with Inkscape (http://www.inkscape.org/) -->

<svg
   version="1.1"
   id="svg2"
   xml:space="preserve"
   width="5455.6802"
   height="718.32001"
   viewBox="0 0 5455.6802 718.32001"
   xmlns="http://www.w3.org/2000/svg"
   xmlns:svg="http://www.w3.org/2000/svg"><defs
     id="defs6" /><g
     id="g8"
     transform="matrix(1.3333333,0,0,-1.3333333,0,718.32)"><g
       id="g10"
       transform="scale(0.1)"><path
         d="m 12401.3,1312.89 -825.9,3493.07 c -77.4,290.05 -318.6,465.63 -574.7,519.94 -256.3,54.14 -518.1,61.51 -798.1,60.73 l -2355.69,0.6 L 0,5.66016 2892.39,5.23047 4061.83,761.469 l 5140,12.652 -290.62,1354.909 -4127.39,16.92 1537.04,225.88 2419.65,1660.01 96.12,0.35 c 72.1,0.3 119.65,-20.01 142.84,-61.38 22.93,-40.75 43.55,-111.5 61.38,-211.76 L 9827.87,0 12401.3,1312.89"
         style="fill:#040606;fill-opacity:1;fill-rule:nonzero;stroke:none"
         id="path12" /><g
         id="g14"
         transform="scale(2.51031)"><path
           d="m 15060.9,1420.16 c -36.7,-79.08 -105,-158.54 -183,-158.66 l -2062.9,-7.66 217.6,379.55 1999.7,4.92 c 57.4,0.12 85.5,-20.84 84.4,-62.55 -1.4,-41.9 -22.4,-75.17 -55.8,-155.6 z m -5548,-715.685 434.53,759.365 c 95.07,152.9 167.17,186.03 227.27,186.03 l 1814.8,4.29 -633.2,-1103.446 -1815.91,-4.27 c -62.54,-0.921 -61.43,102.537 -27.49,158.031 z M 16290,1922.17 c -51.5,142.61 -237.5,223.41 -378.2,223.29 l -6082.48,-0.12 c -54.18,-0.13 -118.28,-15.69 -192.01,-46.75 -140.9,-59.54 -284.43,-142.84 -401.9,-240.98 -54.66,-45.71 -89.99,-83.08 -105.93,-112.16 L 8369.37,418.033 C 8291.98,290.924 8449.29,0.0155608 8567.28,0.936763 L 12107.8,5.15531 12733.1,1111.12 14057.4,3.55721 15675.9,2.275 l -902.3,762.667 382.8,0.798 c 264.9,-4.964 653.3,190.821 765.6,394.63 l 348.2,606.38 c 31.2,54.6 37.7,106.48 19.8,155.42"
           style="fill:#040606;fill-opacity:1;fill-rule:nonzero;stroke:none"
           id="path16" /></g><g
         id="g18"
         transform="scale(1.48283)"><path
           d="m 12753.6,1902.05 3546.4,1728.84 -2409.3,2.29 -2011.1,-1001.06 -880.1,1000.53 -2395.37,-0.41 L 10620.6,1374.08 9985,1712.76 6627.76,0 8897.22,7.34447 10949.4,1014.01 11854.1,4.76284 14251.2,2.67119 12105.5,2263.24 l 648.1,-361.19"
           style="fill:#ee252c;fill-opacity:1;fill-rule:nonzero;stroke:none"
           id="path20" /></g></g></g></svg>
