<svg viewBox="0 0 301 301" fill="none" xmlns="http://www.w3.org/2000/svg">
<g id="pre-loader" clip-path="url(#loading)">
<g id="base">
  <path id="base1" d="M252.908 150C256.719 150 259.83 153.092 259.591 156.895V156.895C259.352 160.698 255.877 163.376 252.097 162.898L150 150H252.908Z"/>
  <path id="base2" d="M239.121 201.454C242.421 203.36 243.57 207.593 241.461 210.767V210.767C239.352 213.941 235.005 214.522 231.969 212.219L150 150L239.121 201.454Z"/>
  <path id="base3" d="M201.454 239.121C203.359 242.421 202.237 246.662 198.824 248.356V248.356C195.411 250.051 191.355 248.38 189.879 244.868L150 150L201.454 239.121Z"/>
  <path id="base4" d="M150 252.909C150 256.719 146.908 259.83 143.105 259.591V259.591C139.302 259.352 136.625 255.877 137.102 252.097L150 150L150 252.909Z"/>
  <path id="base5" d="M98.5459 239.121C96.6407 242.421 92.4072 243.57 89.2334 241.461V241.461C86.0596 239.352 85.478 235.005 87.7818 231.969L150 150L98.5459 239.121Z"/>
  <path id="base6" d="M60.8789 201.454C57.5789 203.36 53.3383 202.238 51.644 198.825V198.825C49.9498 195.412 51.62 191.355 55.1327 189.879L150 150L60.8789 201.454Z"/>
  <path id="base7" d="M47.0918 150C43.2814 150 40.1698 146.908 40.4091 143.105V143.105C40.6483 139.303 44.1229 136.625 47.9033 137.103L150 150L47.0918 150Z"/>
  <path id="base8" d="M60.8789 98.5459C57.579 96.6407 56.4303 92.4072 58.5389 89.2334V89.2334C60.6476 86.0596 64.9954 85.478 68.0306 87.7818L150 150L60.8789 98.5459Z"/>
  <path id="base9" d="M98.5459 60.879C96.6407 57.5791 97.7626 53.3384 101.176 51.6442V51.6442C104.589 49.9499 108.645 51.6201 110.121 55.1328L150 150L98.5459 60.879Z"/>
  <path id="base10" d="M150 47.0916C150 43.2811 153.092 40.1696 156.895 40.4088V40.4088C160.698 40.6481 163.375 44.1226 162.898 47.903L150 150L150 47.0916Z"/>
  <path id="base11" d="M201.454 60.879C203.359 57.5791 207.593 56.4304 210.767 58.5391V58.5391C213.94 60.6477 214.522 64.9956 212.218 68.0307L150 150L201.454 60.879Z"/>
  <path id="base12" d="M239.121 98.546C242.421 96.6408 246.662 97.7627 248.356 101.176V101.176C250.05 104.589 248.38 108.645 244.867 110.122L150 150L239.121 98.546Z"/>
</g>
<g id="loader">
  <path id="loader1" d="M252.908 150C256.719 150 259.83 153.092 259.591 156.895V156.895C259.352 160.698 255.877 163.376 252.097 162.898L150 150H252.908Z"/>
  <path id="loader2" d="M239.121 201.454C242.421 203.36 243.57 207.593 241.461 210.767V210.767C239.352 213.941 235.005 214.522 231.969 212.219L150 150L239.121 201.454Z"/>
  <path id="loader3" d="M201.454 239.121C203.359 242.421 202.237 246.662 198.824 248.356V248.356C195.411 250.051 191.355 248.38 189.879 244.868L150 150L201.454 239.121Z"/>
  <path id="loader4" d="M150 252.909C150 256.719 146.908 259.83 143.105 259.591V259.591C139.302 259.352 136.625 255.877 137.102 252.097L150 150L150 252.909Z"/>
  <path id="loader5" d="M98.5459 239.121C96.6407 242.421 92.4072 243.57 89.2334 241.461V241.461C86.0596 239.352 85.478 235.005 87.7818 231.969L150 150L98.5459 239.121Z"/>
  <path id="loader6" d="M60.8789 201.454C57.5789 203.36 53.3383 202.238 51.644 198.825V198.825C49.9498 195.412 51.62 191.355 55.1327 189.879L150 150L60.8789 201.454Z"/>
  <path id="loader7" d="M47.0918 150C43.2814 150 40.1698 146.908 40.4091 143.105V143.105C40.6483 139.303 44.1229 136.625 47.9033 137.103L150 150L47.0918 150Z"/>
  <path id="loader8" d="M60.8789 98.5459C57.579 96.6407 56.4303 92.4072 58.5389 89.2334V89.2334C60.6476 86.0596 64.9954 85.478 68.0306 87.7818L150 150L60.8789 98.5459Z"/>
  <path id="loader9" d="M98.5459 60.879C96.6407 57.5791 97.7626 53.3384 101.176 51.6442V51.6442C104.589 49.9499 108.645 51.6201 110.121 55.1328L150 150L98.5459 60.879Z"/>
  <path id="loader10" d="M150 47.0916C150 43.2811 153.092 40.1696 156.895 40.4088V40.4088C160.698 40.6481 163.375 44.1226 162.898 47.903L150 150L150 47.0916Z"/>
  <path id="loader11" d="M201.454 60.879C203.359 57.5791 207.593 56.4304 210.767 58.5391V58.5391C213.94 60.6477 214.522 64.9956 212.218 68.0307L150 150L201.454 60.879Z"/>
  <path id="loader12" d="M239.121 98.546C242.421 96.6408 246.662 97.7627 248.356 101.176V101.176C250.05 104.589 248.38 108.645 244.867 110.122L150 150L239.121 98.546Z"/>
</g>
</g>
<defs>
  <style>#base path{fill: #f0f0f0;}#loader path{animation: spinner 1200ms infinite ease-in-out;}#loader #loader1{animation-delay: 0ms;}#loader #loader2{animation-delay: 100ms;}#loader #loader3{animation-delay: 200ms;}#loader #loader4{animation-delay: 300ms;}#loader #loader5{animation-delay: 400ms;}#loader #loader6{animation-delay: 500ms;}#loader #loader7{animation-delay: 600ms;}#loader #loader8{animation-delay: 700ms;}#loader #loader9{animation-delay: 800ms;}#loader #loader10{animation-delay: 900ms;}#loader #loader11{animation-delay: 1000ms;}#loader #loader12{animation-delay: 1100ms;}@keyframes spinner{from{fill: none;}to{fill: url(#loaderFill);}}</style>
  <linearGradient id="loaderFill" x1="415.073" y1="169.104" x2="150.071" y2="150.07" gradientUnits="userSpaceOnUse">
    <stop stop-color="#EC6E13" stop-opacity="0"/>
    <stop offset="1" stop-color="#EC6E13"/>
  </linearGradient>
  <clipPath id="loading">
    <rect width="300" height="300"/>
  </clipPath>
</defs>
</svg>
